<svg width="512" height="512" xmlns="http://www.w3.org/2000/svg">

 <g>
  <title>background</title>
  <rect fill="none" id="canvas_background" height="402" width="582" y="-1" x="-1"/>
 </g>
 <g>
  <title>Layer 1</title>
  <path fill="#dddddd" id="svg_1" d="m433.984985,210.380997l0,-64.876999c0,-79.295998 -64.882019,-144.173008 -144.173004,-144.173008l-72.085999,0c-79.302002,0 -144.173004,64.876003 -144.173004,144.173008l0,64.876999l-72.085979,187.427017c0,36.042999 112.951999,108.128998 252.302989,108.128998c139.33902,0 252.303009,-72.085999 252.303009,-108.128998l-72.088013,-187.427017zm-288.344986,236.986008c-7.473999,0 -13.516006,-6.042999 -13.516006,-13.516998s6.042007,-13.516998 13.516006,-13.516998c7.473999,0 13.516998,6.042999 13.516998,13.516998s-6.042999,13.516998 -13.516998,13.516998m-18.022003,-193.733002c0,-9.914001 4.998001,-24.404007 11.111008,-32.201004c0,0 17.12999,-21.863998 51.964996,-21.863998c17.669006,0 30.001007,8.119003 30.001007,8.119003c8.270996,5.444 15.052994,18.009995 15.052994,27.923996l0,27.03299c0,4.957001 -8.106995,9.011017 -18.022003,9.011017l-72.085999,0c-9.914001,0 -18.022003,-8.113007 -18.022003,-18.022003m72.087006,180.21701l-18.020996,0l0,-36.042999l18.020996,-18.022003l0,54.065002zm45.054001,0l-27.033005,0l0,-72.087006l27.033005,0l0,72.087006zm-18.022003,-90.109009l0,-27.032013c0,-14.936005 12.108002,-27.032013 27.031998,-27.032013c14.935989,0 27.031998,12.097015 27.031998,27.032013l0,27.032013l-54.063995,0zm63.075012,90.109009l-27.032013,0l0,-72.087006l27.032013,0l0,72.087006zm36.043976,0l-18.022003,0l0,-54.065002l18.022003,18.022003l0,36.042999zm36.042999,13.515991c-7.473999,0 -13.516998,-6.042999 -13.516998,-13.516998s6.042999,-13.516998 13.516998,-13.516998s13.515991,6.042999 13.515991,13.516998s-6.041992,13.516998 -13.515991,13.516998m0,-175.710999l-72.087006,0c-9.914001,0 -18.020996,-4.053986 -18.020996,-9.010986l0,-27.033005c0,-9.915009 6.77002,-22.480011 15.054016,-27.924011c0,0 12.319,-8.118988 30.000977,-8.118988c34.834015,0 51.96402,21.863998 51.96402,21.863998c6.113007,7.79599 11.110992,22.287003 11.110992,32.200989c0,9.908997 -8.108002,18.022003 -18.022003,18.022003m111.391998,134.552002c-1.067993,0.410004 -2.17099,0.610016 -3.261993,0.610016c-3.602997,0 -7.016998,-2.183014 -8.390015,-5.737l-65.539001,-168.343018c-17.32901,-43.300003 -38.742004,-60.201004 -76.392975,-60.201004c-24.968018,0 -45.910004,15.481003 -46.122009,15.651001c-11.110016,8.336014 -28.522018,8.300995 -39.645004,0c-0.17601,-0.169998 -21.330002,-15.651001 -46.122009,-15.651001c-37.626999,0 -59.063004,16.901001 -76.416,60.271011l-65.490978,168.27298c-1.806999,4.634003 -7.063,6.93399 -11.674,5.126984c-4.635,-1.794983 -6.934999,-7.016998 -5.115999,-11.673981l65.528002,-168.330994c20.098,-50.270004 47.964005,-71.688004 93.169998,-71.688004c30.927994,0 55.895004,18.462006 56.938995,19.229996c4.716003,3.561005 13.304993,3.561005 18.01001,0c1.056,-0.768997 26.035004,-19.229996 56.938995,-19.229996c45.218994,0 73.071991,21.417999 93.15799,71.616989l65.563019,168.402008c1.796997,4.657013 -0.490997,9.878998 -5.137024,11.674011"/>
 </g>
</svg>